On March 13th, 1997 one of the largest UFO sightings ever recorded took
place across the southwestern United States. The event became known as
the 'Phoenix Lights' and was witnessed by community leaders, members of
law enforcement, as well as thousands of everyday citizens. This true story,
based on transcripts from actual hypnosis-therapy sessions, finally reveals
what happened after the infamous incident ended and how six people, stranded
by chance on a forgotten road, encountered more than just lights in the sky.

General
Complete name : Night Skies 2007 DVDRip AC3 XviD.avi
Format : AVI
Format/Info : Audio Video Interleave
File size : 1.46 GiB
Duration : 1h 24mn
Overall bit rate : 2 477 Kbps
Writing application : VirtualDubMod 1.5.4.1 (build 2178/release)
Writing library : VirtualDubMod build 2178/release

Video
ID : 0
Format : MPEG-4 Visual
Format profile : Simple@L3
Format settings, BVOP : No
Format settings, QPel : No
Format settings, GMC : No warppoints
Format settings, Matrix : Default (H.263)
Codec ID : XVID
Codec ID/Hint : XviD
Duration : 1h 24mn
Bit rate : 2 020 Kbps
Width : 720 pixels
Height : 400 pixels
Display aspect ratio : 16:9
Frame rate : 23.976 fps
Resolution : 8 bits
Colorimetry : 4:2:0
Scan type : Progressive
Bits/(Pixel*Frame) : 0.293
Stream size : 1.19 GiB (82%)
Writing library : XviD 1.1.2 (UTC 2006-11-01)

Audio
ID : 1
Format : AC-3
Format/Info : Audio Coding 3
Codec ID : 2000
Duration : 1h 24mn
Bit rate mode : Constant
Bit rate : 448 Kbps
Channel(s) : 6 channels
Channel positions : Front: L C R, Surround: L R, LFE
Sampling rate : 48.0 KHz
Stream size : 270 MiB (18%)
Alignment : Split accross interleaves
Interleave, duration : 42 ms (1.00 video frame)
Interleave, preload duration : 500 ms 
http://www.imdb.com/title/tt0460883/

 
http://www.aedes.us/e/XH3h4.png 
http://www.aedes.us/e/eqXl3.png 
http://www.aedes.us/e/lWgih.png